<svg width="15" height="15" viewBox="0 0 15 15" fill="none" xmlns="http://www.w3.org/2000/svg">
<g opacity="0.4">
<path d="M11.7794 6.48529H14.5588V3.97059C14.5588 3.48529 14.1618 3.08824 13.6765 3.08824H2.86765C2.51471 3.08824 2.20588 2.77941 2.20588 2.42647C2.20588 2.07353 2.51471 1.76471 2.86765 1.76471H13.2353V0.882353C13.2353 0.397059 12.8382 0 12.3529 0H1.76471C0.794118 0 0 0.794118 0 1.76471V13.2353C0 14.2059 0.794118 15 1.76471 15H13.6765C14.1618 15 14.5588 14.6029 14.5588 14.1176V11.9118H11.7794C10.2794 11.9118 9.04412 10.6765 9.04412 9.17647C9.04412 7.67647 10.2794 6.48529 11.7794 6.48529Z" fill="#D2DCF7"/>
<path d="M14.7794 7.58813H11.7794C10.8971 7.58813 10.1471 8.29402 10.1471 9.22049C10.1471 10.1028 10.853 10.8528 11.7794 10.8528H14.7794C14.9118 10.8528 15 10.7646 15 10.6323V7.85284C15 7.67637 14.9118 7.58813 14.7794 7.58813ZM12.1324 9.83813C11.7794 9.83813 11.4706 9.52931 11.4706 9.17637C11.4706 8.82343 11.7794 8.5146 12.1324 8.5146C12.4853 8.5146 12.7942 8.82343 12.7942 9.17637C12.7942 9.52931 12.4853 9.83813 12.1324 9.83813Z" fill="#D2DCF7"/>
</g>
</svg>
