<svg width="22" height="22" viewBox="0 0 22 22" fill="none" xmlns="http://www.w3.org/2000/svg">
<g opacity="0.6" clip-path="url(#clip0)">
<path d="M9.71094 0H0.644531C0.288578 0 0 0.288578 0 0.644531V9.71094C0 10.0669 0.288578 10.3555 0.644531 10.3555H9.71094C10.0669 10.3555 10.3555 10.0669 10.3555 9.71094V0.644531C10.3555 0.288578 10.0669 0 9.71094 0ZM9.06641 9.06641H1.28906V1.28906H9.06641V9.06641Z" fill="#D2DCF7" stroke="#171430" stroke-width="0.3"/>
<path d="M21.3555 0H12.2891C11.9331 0 11.6445 0.288578 11.6445 0.644531V9.71094C11.6445 10.0669 11.9331 10.3555 12.2891 10.3555H21.3555C21.7114 10.3555 22 10.0669 22 9.71094V0.644531C22 0.288578 21.7114 0 21.3555 0ZM20.7109 9.06641H12.9336V1.28906H20.7109V9.06641Z" fill="#D2DCF7" stroke="#171430" stroke-width="0.3"/>
<path d="M18.7344 2.62109H14.8672C14.5112 2.62109 14.2227 2.90967 14.2227 3.26562V7.13281C14.2227 7.48877 14.5112 7.77734 14.8672 7.77734H18.7344C19.0903 7.77734 19.3789 7.48877 19.3789 7.13281V3.26562C19.3789 2.90967 19.0903 2.62109 18.7344 2.62109ZM18.0898 6.48828H15.5117V3.91016H18.0898V6.48828Z" fill="#D2DCF7" stroke="#171430" stroke-width="0.3"/>
<path d="M7.13281 2.62109H3.26562C2.90967 2.62109 2.62109 2.90967 2.62109 3.26562V7.13281C2.62109 7.48877 2.90967 7.77734 3.26562 7.77734H7.13281C7.48877 7.77734 7.77734 7.48877 7.77734 7.13281V3.26562C7.77734 2.90967 7.48877 2.62109 7.13281 2.62109ZM6.48828 6.48828H3.91016V3.91016H6.48828V6.48828Z" fill="#D2DCF7" stroke="#171430" stroke-width="0.3"/>
<path d="M7.13281 14.2227H3.26562C2.90967 14.2227 2.62109 14.5112 2.62109 14.8672V18.7344C2.62109 19.0903 2.90967 19.3789 3.26562 19.3789H7.13281C7.48877 19.3789 7.77734 19.0903 7.77734 18.7344V14.8672C7.77734 14.5112 7.48877 14.2227 7.13281 14.2227ZM6.48828 18.0898H3.91016V15.5117H6.48828V18.0898Z" fill="#D2DCF7" stroke="#171430" stroke-width="0.3"/>
<path d="M9.71094 11.6445H0.644531C0.288578 11.6445 0 11.9331 0 12.2891V21.3555C0 21.7114 0.288578 22 0.644531 22H9.71094C10.0669 22 10.3555 21.7114 10.3555 21.3555V12.2891C10.3555 11.9331 10.0669 11.6445 9.71094 11.6445ZM9.06641 20.7109H1.28906V12.9336H9.06641V20.7109Z" fill="#D2DCF7" stroke="#171430" stroke-width="0.3"/>
<path d="M21.3555 15.5117C20.9995 15.5117 20.7109 15.8003 20.7109 16.1562V18.0898H17.4453C17.0894 18.0898 16.8008 18.3784 16.8008 18.7344V20.7109H12.9336V18.7344C12.9336 18.3784 12.645 18.0898 12.2891 18.0898C11.9331 18.0898 11.6445 18.3784 11.6445 18.7344V21.3555C11.6445 21.7114 11.9331 22 12.2891 22H17.4453C17.8013 22 18.0898 21.7114 18.0898 21.3555V19.3789H21.3555C21.7114 19.3789 22 19.0903 22 18.7344V16.1562C22 15.8003 21.7114 15.5117 21.3555 15.5117Z" fill="#D2DCF7" stroke="#171430" stroke-width="0.3"/>
<path d="M16.1562 11.6445H12.2891C11.9331 11.6445 11.6445 11.9331 11.6445 12.2891V16.1562C11.6445 16.5122 11.9331 16.8008 12.2891 16.8008C12.645 16.8008 12.9336 16.5122 12.9336 16.1562V12.9336H15.5117V13.5781C15.5117 13.9341 15.8003 14.2227 16.1562 14.2227C16.5122 14.2227 16.8008 13.9341 16.8008 13.5781V12.2891C16.8008 11.9331 16.5122 11.6445 16.1562 11.6445Z" fill="#D2DCF7" stroke="#171430" stroke-width="0.3"/>
<path d="M21.3558 11.6445H18.7347C18.3787 11.6445 18.0902 11.9331 18.0902 12.2891V15.5203L14.8676 15.5201C14.5116 15.5201 14.223 15.8001 14.223 16.156C14.223 16.1561 14.223 16.1561 14.223 16.1562C14.223 16.1562 14.223 16.1563 14.223 16.1563V18.7344C14.223 19.0904 14.5116 19.379 14.8676 19.379C15.2235 19.379 15.5121 19.0904 15.5121 18.7344V16.8007L18.7346 16.8008C18.9056 16.8008 19.0695 16.7328 19.1904 16.612C19.3113 16.4911 19.3792 16.3272 19.3792 16.1563V12.9336H21.3558C21.7117 12.9336 22.0003 12.645 22.0003 12.2891C22.0003 11.9331 21.7117 11.6445 21.3558 11.6445Z" fill="#D2DCF7" stroke="#171430" stroke-width="0.3"/>
<path d="M21.3555 20.7109H20.0234C19.6675 20.7109 19.3789 20.9995 19.3789 21.3555C19.3789 21.7114 19.6675 22 20.0234 22H21.3555C21.7114 22 22 21.7114 22 21.3555C22 20.9995 21.7114 20.7109 21.3555 20.7109Z" fill="#D2DCF7" stroke="#171430" stroke-width="0.3"/>
</g>
<defs>
<clipPath id="clip0">
<rect width="22" height="22" fill="white"/>
</clipPath>
</defs>
</svg>
