<svg width="20" height="24" viewBox="0 0 20 24" fill="none" xmlns="http://www.w3.org/2000/svg">
<path d="M18.15 24H1.85002C1.25002 24 0.650024 23.4 0.650024 22.7V1.2C0.650024 0.6 1.25002 0 1.85002 0H18.05C18.75 0 19.25 0.6 19.25 1.2V22.7C19.35 23.4 18.85 24 18.15 24ZM1.85002 0.8C1.65002 0.8 1.45002 1 1.45002 1.2V22.7C1.45002 22.9 1.65002 23.1 1.85002 23.1H18.05C18.25 23.1 18.45 22.9 18.45 22.7V1.2C18.45 1 18.25 0.8 18.05 0.8H1.85002Z" fill="#D2DCF7"/>
<path d="M16.65 7.1H3.65C3.45 7.1 3.25 6.9 3.25 6.7V3.4C3.25 3.2 3.45 3 3.65 3H16.65C16.85 3 17.05 3.2 17.05 3.4V6.7C17.15 6.9 16.95 7.1 16.65 7.1Z" fill="#D2DCF7"/>
<path d="M5.85001 13.9C5.65001 13.9 5.45001 13.7 5.45001 13.5V10C5.45001 9.80001 5.65001 9.60001 5.85001 9.60001C6.05001 9.60001 6.25001 9.80001 6.25001 10V13.5C6.35001 13.7 6.15001 13.9 5.85001 13.9Z" fill="#D2DCF7"/>
<path d="M7.65 12.1H4.15C3.95 12.1 3.75 11.9 3.75 11.7C3.75 11.5 3.95 11.3 4.15 11.3H7.65C7.85 11.3 8.05 11.5 8.05 11.7C8.05 12 7.85 12.1 7.65 12.1Z" fill="#D2DCF7"/>
<path d="M7.15001 20.2C7.05001 20.2 6.95001 20.2 6.85001 20.1L4.35001 17.6C4.15001 17.4 4.15001 17.2 4.35001 17C4.55001 16.8 4.75001 16.8 4.95001 17L7.45001 19.5C7.65001 19.7 7.65001 19.9 7.45001 20.1C7.35001 20.2 7.25001 20.2 7.15001 20.2Z" fill="#D2DCF7"/>
<path d="M4.65001 20.2C4.55001 20.2 4.45001 20.2 4.35001 20.1C4.15001 19.9 4.15001 19.7 4.35001 19.5L6.85001 17C7.05001 16.8 7.25001 16.8 7.45001 17C7.65001 17.2 7.65001 17.4 7.45001 17.6L4.95001 20.1C4.85001 20.2 4.75001 20.2 4.65001 20.2Z" fill="#D2DCF7"/>
<path d="M16.15 12.1H12.65C12.45 12.1 12.25 11.9 12.25 11.7C12.25 11.5 12.45 11.3 12.65 11.3H16.15C16.35 11.3 16.55 11.5 16.55 11.7C16.55 12 16.35 12.1 16.15 12.1Z" fill="#D2DCF7"/>
<path d="M16.15 18.3H12.65C12.45 18.3 12.25 18.1 12.25 17.9C12.25 17.7 12.45 17.5 12.65 17.5H16.15C16.35 17.5 16.55 17.7 16.55 17.9C16.55 18.1 16.35 18.3 16.15 18.3Z" fill="#D2DCF7"/>
<path d="M16.15 20.1H12.65C12.45 20.1 12.25 19.9 12.25 19.7C12.25 19.5 12.45 19.3 12.65 19.3H16.15C16.35 19.3 16.55 19.5 16.55 19.7C16.55 19.9 16.35 20.1 16.15 20.1Z" fill="#D2DCF7"/>
</svg>
