<svg width="18" height="18" viewBox="0 0 18 18" fill="none" xmlns="http://www.w3.org/2000/svg">
<path d="M6.5597 9.93037C6.5597 9.70489 6.37681 9.52222 6.15114 9.52222H4.72542C4.50001 9.52222 4.31708 9.70489 4.31708 9.93037V11.3559C4.31708 11.5817 4.50001 11.7644 4.72542 11.7644H6.15114C6.37681 11.7644 6.5597 11.5817 6.5597 11.3559V9.93037Z" fill="#D2DCF7"/>
<path d="M10.1214 9.93037C10.1214 9.70489 9.93851 9.52222 9.71329 9.52222H8.28737C8.06196 9.52222 7.87903 9.70489 7.87903 9.93037V11.3559C7.87903 11.5817 8.06196 11.7644 8.28737 11.7644H9.71329C9.93851 11.7644 10.1214 11.5817 10.1214 11.3559V9.93037Z" fill="#D2DCF7"/>
<path d="M13.6856 9.93037C13.6856 9.70489 13.5026 9.52222 13.2772 9.52222H11.8515C11.6258 9.52222 11.4429 9.70489 11.4429 9.93037V11.3559C11.4429 11.5817 11.6258 11.7644 11.8515 11.7644H13.2772C13.5026 11.7644 13.6856 11.5817 13.6856 11.3559V9.93037Z" fill="#D2DCF7"/>
<path d="M6.5597 13.4939C6.5597 13.2681 6.37681 13.0856 6.15114 13.0856H4.72542C4.50001 13.0856 4.31708 13.2681 4.31708 13.4939V14.9192C4.31708 15.1449 4.50001 15.3276 4.72542 15.3276H6.15114C6.37681 15.3276 6.5597 15.1448 6.5597 14.9192V13.4939Z" fill="#D2DCF7"/>
<path d="M10.1214 13.4939C10.1214 13.2681 9.93851 13.0856 9.71329 13.0856H8.28737C8.06196 13.0856 7.87903 13.2681 7.87903 13.4939V14.9192C7.87903 15.1449 8.06196 15.3276 8.28737 15.3276H9.71329C9.93851 15.3276 10.1214 15.1448 10.1214 14.9192V13.4939Z" fill="#D2DCF7"/>
<path d="M13.6856 13.4939C13.6856 13.2681 13.5026 13.0856 13.2774 13.0856H11.8515C11.6258 13.0856 11.4429 13.2681 11.4429 13.4939V14.9192C11.4429 15.1449 11.6258 15.3276 11.8515 15.3276H13.2774C13.5026 15.3276 13.6856 15.1448 13.6856 14.9192V13.4939Z" fill="#D2DCF7"/>
<path d="M16.2346 2.00416V4.18155C16.2346 5.16571 15.4362 5.95879 14.4521 5.95879H13.3278C12.3437 5.95879 11.5347 5.16571 11.5347 4.18155V1.99634H6.46677V4.18155C6.46677 5.16571 5.65783 5.95879 4.67389 5.95879H3.54928C2.5653 5.95879 1.76695 5.16571 1.76695 4.18155V2.00416C0.906942 2.03008 0.200256 2.7417 0.200256 3.61639V16.377C0.200256 17.2681 0.92254 18 1.81367 18H16.1878C17.0776 18 17.8012 17.2666 17.8012 16.377V3.61639C17.8012 2.7417 17.0946 2.03008 16.2346 2.00416ZM15.7123 15.5823C15.7123 15.9674 15.4001 16.2799 15.0148 16.2799H2.95594C2.57069 16.2799 2.25844 15.9674 2.25844 15.5823V8.99103C2.25844 8.60578 2.57065 8.29334 2.95594 8.29334H15.0148C15.4 8.29334 15.7123 8.60578 15.7123 8.99103L15.7123 15.5823Z" fill="#D2DCF7"/>
<path d="M3.54556 4.79156H4.65775C4.99532 4.79156 5.26904 4.51825 5.26904 4.18067V0.611109C5.26904 0.273493 4.99532 0 4.65775 0H3.54556C3.20794 0 2.93427 0.273493 2.93427 0.611109V4.18067C2.93427 4.51825 3.20794 4.79156 3.54556 4.79156Z" fill="#D2DCF7"/>
<path d="M13.3137 4.79156H14.4259C14.7633 4.79156 15.037 4.51825 15.037 4.18067V0.611109C15.037 0.273493 14.7633 0 14.4259 0H13.3137C12.9762 0 12.7025 0.273493 12.7025 0.611109V4.18067C12.7025 4.51825 12.9762 4.79156 13.3137 4.79156Z" fill="#D2DCF7"/>
</svg>
