<svg width="15" height="16" viewBox="0 0 15 16" fill="none" xmlns="http://www.w3.org/2000/svg">
<path d="M0 3.67105V12.3289H15V3.67105H0ZM14.0217 9.41899C13.0554 9.41899 12.272 10.2546 12.272 11.2854H2.72801C2.72801 10.2546 1.94461 9.41899 0.978252 9.41899V6.58089C1.94461 6.58089 2.72801 5.74527 2.72801 4.71449H12.272C12.272 5.74527 13.0554 6.58089 14.0217 6.58089V9.41899Z" fill="#D2DCF7"/>
<path d="M7.49985 10.3404C8.51791 10.3404 9.34321 9.29256 9.34321 7.99992C9.34321 6.70728 8.51791 5.65939 7.49985 5.65939C6.48179 5.65939 5.65649 6.70728 5.65649 7.99992C5.65649 9.29256 6.48179 10.3404 7.49985 10.3404Z" fill="#D2DCF7"/>
</svg>
