<svg width="14" height="20" viewBox="0 0 14 20" fill="none" xmlns="http://www.w3.org/2000/svg">
<path d="M2.01749 18.323C2.05842 19.2644 2.73337 19.9998 3.55968 19.9998H9.82012C10.6464 19.9998 11.3214 19.2645 11.3623 18.323L12.2641 6.47034H1.11572L2.01749 18.323ZM8.23404 9.41152H9.26345V15.8821H8.23404V9.41152ZM6.17521 9.41152H7.20462V15.8821H6.17521V9.41152ZM4.11639 9.41152H5.1458V15.8821H4.11639V9.41152Z" fill="#F57B7B"/>
<path d="M9.26471 2.94118V1.76471C9.26471 0.791686 8.57205 0 7.72059 0H5.66177C4.81037 0 4.11765 0.791686 4.11765 1.76471V2.94118H0V5.29412H13.3824V2.94118H9.26471ZM5.14706 2.94118V1.76471C5.14706 1.44035 5.37799 1.17647 5.66177 1.17647H7.72059C8.00443 1.17647 8.23529 1.44035 8.23529 1.76471V2.94118H5.14706Z" fill="#F57B7B"/>
</svg>
