<svg width="15" height="15" viewBox="0 0 15 15" fill="none" xmlns="http://www.w3.org/2000/svg">
<g clip-path="url(#clip0)">
<path d="M14.9892 3.23167C14.9892 3.21454 15.001 3.19785 15.0002 3.18091L10.4227 7.59156L14.9948 11.8613C14.9974 11.8308 14.9892 11.8001 14.9892 11.7689V3.23167Z" fill="#D2DCF7"/>
<path d="M9.72409 8.27002L7.85542 10.0679C7.76086 10.1589 7.63874 10.2045 7.51654 10.2045C7.39689 10.2045 7.27724 10.1608 7.18333 10.0733L5.31976 8.33675L0.717896 12.7724C0.829791 12.8126 0.949898 12.8439 1.07567 12.8439H13.9575C14.1443 12.8439 14.3194 12.787 14.4717 12.7021L9.72409 8.27002Z" fill="#D2DCF7"/>
<path d="M7.51099 9.04283L14.4969 2.31337C14.3387 2.21933 14.1546 2.15625 13.9573 2.15625H1.07546C0.818501 2.15625 0.583044 2.25602 0.399658 2.40819L7.51099 9.04283Z" fill="#D2DCF7"/>
<path d="M0 3.39526V11.7685C0 11.8646 0.0220924 11.9573 0.0460746 12.0458L4.59085 7.66932L0 3.39526Z" fill="#D2DCF7"/>
</g>
<defs>
<clipPath id="clip0">
<rect width="15" height="15" fill="white"/>
</clipPath>
</defs>
</svg>
