<svg width="21" height="24" viewBox="0 0 21 24" fill="none" xmlns="http://www.w3.org/2000/svg">
<path d="M19.05 2.10001H15.65C15.45 2.10001 15.25 2.30001 15.25 2.50001C15.25 2.70001 15.45 2.90001 15.65 2.90001H19.05C19.25 2.90001 19.35 3.10001 19.35 3.20001V22.7C19.35 22.9 19.15 23 19.05 23H1.95C1.75 23 1.65 22.8 1.65 22.7V3.20001C1.65 3.00001 1.85 2.90001 1.95 2.90001H5.45C5.65 2.90001 5.85 2.70001 5.85 2.50001C5.85 2.30001 5.65 2.10001 5.45 2.10001H1.95C1.25 2.10001 0.75 2.60001 0.75 3.20001V22.7C0.75 23.4 1.25 23.9 1.95 23.9H19.05C19.75 23.9 20.25 23.4 20.25 22.7V3.20001C20.25 2.60001 19.75 2.10001 19.05 2.10001Z" fill="#D2DCF7"/>
<path d="M13.95 1.2V3.5C13.95 3.7 13.75 3.8 13.55 3.8H7.54999C7.34999 3.8 7.14999 3.7 7.14999 3.5V1.2C7.14999 1 7.34999 0.9 7.54999 0.9H8.54999V0.4C8.54999 0.2 8.74999 0 8.94999 0H12.15C12.35 0 12.55 0.2 12.55 0.4V0.9H13.45C13.75 0.8 13.95 1 13.95 1.2Z" fill="#D2DCF7"/>
<path d="M16.05 8.69999H8.04999C7.84999 8.69999 7.64999 8.49999 7.64999 8.29999C7.64999 8.09999 7.84999 7.89999 8.04999 7.89999H16.05C16.25 7.89999 16.45 8.09999 16.45 8.29999C16.45 8.49999 16.35 8.69999 16.05 8.69999Z" fill="#D2DCF7"/>
<path d="M16.05 12.1H8.04999C7.84999 12.1 7.64999 11.9 7.64999 11.7C7.64999 11.5 7.84999 11.3 8.04999 11.3H16.05C16.25 11.3 16.45 11.5 16.45 11.7C16.55 11.9 16.35 12.1 16.05 12.1Z" fill="#D2DCF7"/>
<path d="M16.05 15.4H8.04999C7.84999 15.4 7.64999 15.2 7.64999 15C7.64999 14.8 7.84999 14.6 8.04999 14.6H16.05C16.25 14.6 16.45 14.8 16.45 15C16.55 15.2 16.35 15.4 16.05 15.4Z" fill="#D2DCF7"/>
<path d="M5.55001 8.69999H4.85001C4.65001 8.69999 4.45001 8.49999 4.45001 8.29999C4.45001 8.09999 4.65001 7.89999 4.85001 7.89999H5.55001C5.75001 7.89999 5.95001 8.09999 5.95001 8.29999C5.95001 8.49999 5.85001 8.69999 5.55001 8.69999Z" fill="#D2DCF7"/>
<path d="M5.55001 12.1H4.85001C4.65001 12.1 4.45001 11.9 4.45001 11.7C4.45001 11.5 4.65001 11.3 4.85001 11.3H5.55001C5.75001 11.3 5.95001 11.5 5.95001 11.7C5.95001 11.9 5.85001 12.1 5.55001 12.1Z" fill="#D2DCF7"/>
<path d="M5.55001 15.4H4.85001C4.65001 15.4 4.45001 15.2 4.45001 15C4.45001 14.8 4.65001 14.6 4.85001 14.6H5.55001C5.75001 14.6 5.95001 14.8 5.95001 15C5.95001 15.2 5.85001 15.4 5.55001 15.4Z" fill="#D2DCF7"/>
<path d="M16.05 18.8H8.04999C7.84999 18.8 7.64999 18.6 7.64999 18.4C7.64999 18.2 7.84999 18 8.04999 18H16.05C16.25 18 16.45 18.2 16.45 18.4C16.55 18.6 16.35 18.8 16.05 18.8Z" fill="#D2DCF7"/>
<path d="M5.55001 18.8H4.85001C4.65001 18.8 4.45001 18.6 4.45001 18.4C4.45001 18.2 4.65001 18 4.85001 18H5.55001C5.75001 18 5.95001 18.2 5.95001 18.4C5.95001 18.6 5.85001 18.8 5.55001 18.8Z" fill="#D2DCF7"/>
</svg>
