<svg width="25" height="22" viewBox="0 0 25 22" fill="none" xmlns="http://www.w3.org/2000/svg">
<g clip-path="url(#clip0)">
<path d="M20.15 21.05H4.75005C3.85005 21.05 3.05005 20.35 3.05005 19.35V8.15005L11.75 0.350049C12.15 -0.0499512 12.75 -0.0499512 13.25 0.350049L21.85 8.05005V19.35C21.85 20.25 21.05 21.05 20.15 21.05ZM3.85005 8.55005V19.45C3.85005 19.95 4.25005 20.25 4.65005 20.25H20.05C20.55 20.25 20.85 19.85 20.85 19.45V8.45005L12.55 0.950049C12.45 0.850049 12.35 0.850049 12.25 0.950049L3.85005 8.55005Z" fill="#D2DCF7"/>
<path d="M24.05 10.95C23.95 10.95 23.85 10.95 23.75 10.85L21.15 8.55005C20.95 8.35005 20.95 8.15005 21.15 7.95005C21.35 7.75005 21.55 7.75005 21.75 7.95005L24.35 10.25C24.55 10.45 24.55 10.65 24.35 10.85C24.25 10.95 24.15 10.95 24.05 10.95Z" fill="#D2DCF7"/>
<path d="M0.950016 10.95C0.850016 10.95 0.750016 10.95 0.650016 10.85C0.450016 10.65 0.550016 10.45 0.650016 10.25L3.15002 8.05004C3.35002 7.85004 3.55002 7.95004 3.75002 8.05004C3.95002 8.25004 3.85002 8.45004 3.75002 8.65004L1.25002 10.85C1.15002 10.95 1.05002 10.95 0.950016 10.95Z" fill="#D2DCF7"/>
<path d="M14.65 12.85H10.35C9.95005 12.85 9.55005 13.1346 9.55005 13.609V20.2499H15.35V13.609C15.35 13.1346 15.05 12.85 14.65 12.85Z" fill="#8F73F8"/>
</g>
<defs>
<clipPath id="clip0">
<rect width="23.9" height="21" fill="white" transform="translate(0.550049 0.0500488)"/>
</clipPath>
</defs>
</svg>
