<svg width="33" height="33" viewBox="0 0 33 33" fill="none" xmlns="http://www.w3.org/2000/svg">
<circle opacity="0.3" cx="16.5" cy="16.5" r="15.25" stroke="#A3A6DA" stroke-width="2.5"/>
<path d="M1.76963 20.447C1.16421 18.1875 1.08668 15.8191 1.54302 13.5249C1.99937 11.2307 2.97737 9.07217 4.40136 7.21639C5.82535 5.36061 7.65717 3.85728 9.7551 2.82269C11.853 1.78811 14.1608 1.25 16.5 1.25" stroke="#F57B7B" stroke-width="2.5" stroke-linecap="round"/>
<path d="M16.5 22.8461C12.9952 22.8461 10.1539 20.0048 10.1539 16.5C10.1539 12.9951 12.9952 10.1538 16.5 10.1538C20.0049 10.1538 22.8462 12.9951 22.8462 16.5C22.8462 20.0048 20.0049 22.8461 16.5 22.8461Z" fill="#F57B7B"/>
<path d="M12.8816 18.4393C13.1305 18.6741 13.5324 18.6741 13.7812 18.4393L16.5181 15.8435L19.255 18.4393C19.5224 18.6566 19.9255 18.6269 20.1546 18.3734C20.3594 18.1471 20.3594 17.8125 20.1546 17.5862L16.9647 14.5607C16.7159 14.3259 16.314 14.3259 16.0651 14.5607L12.8753 17.5862C12.6296 17.824 12.6322 18.2052 12.8816 18.4393Z" fill="#140B47"/>
</svg>
