<svg width="33" height="33" viewBox="0 0 33 33" fill="none" xmlns="http://www.w3.org/2000/svg">
<circle opacity="0.3" cx="16.5" cy="16.5" r="15.25" stroke="#A3A6DA" stroke-width="2.5"/>
<path d="M30.3672 22.8454C29.2279 25.3352 27.4393 27.4723 25.1892 29.0323C22.9392 30.5924 20.3106 31.518 17.5794 31.7118C14.8483 31.9055 12.1153 31.3605 9.66747 30.1337C7.21964 28.907 5.14723 27.0439 3.66781 24.74C2.18838 22.4361 1.35652 19.7763 1.25957 17.04C1.16261 14.3037 1.80412 11.5918 3.11676 9.18895C4.4294 6.7861 6.36474 4.78096 8.71961 3.38406C11.0745 1.98715 13.762 1.25 16.5 1.25" stroke="#7FEDAB" stroke-width="2.5" stroke-linecap="round"/>
<path d="M16.5 22.8461C12.9952 22.8461 10.1539 20.0048 10.1539 16.5C10.1539 12.9951 12.9952 10.1538 16.5 10.1538C20.0049 10.1538 22.8462 12.9951 22.8462 16.5C22.8462 20.0048 20.0049 22.8461 16.5 22.8461Z" fill="#7FEDAB"/>
<path d="M12.8816 18.4393C13.1305 18.6741 13.5324 18.6741 13.7812 18.4393L16.5181 15.8435L19.255 18.4393C19.5224 18.6566 19.9255 18.6269 20.1546 18.3734C20.3594 18.1471 20.3594 17.8125 20.1546 17.5862L16.9647 14.5607C16.7159 14.3259 16.314 14.3259 16.0651 14.5607L12.8753 17.5862C12.6296 17.824 12.6322 18.2052 12.8816 18.4393Z" fill="#140B47"/>
</svg>
