<svg width="24" height="22" viewBox="0 0 24 22" fill="none" xmlns="http://www.w3.org/2000/svg">
<path d="M5.34999 21.9H1.04999C0.449988 21.9 0.0499878 21.4 0.0499878 20.9V12.6C0.0499878 12 0.549988 11.6 1.04999 11.6H5.34999C5.94999 11.6 6.34999 12.1 6.34999 12.6V20.9C6.44999 21.5 5.94999 21.9 5.34999 21.9ZM1.04999 12.4C0.949988 12.4 0.849988 12.5 0.849988 12.6V20.9C0.949988 21 0.949988 21.1 1.04999 21.1H5.34999C5.44999 21.1 5.54999 21 5.54999 20.9V12.6C5.54999 12.5 5.44999 12.4 5.34999 12.4H1.04999Z" fill="#D2DCF7"/>
<path d="M14.55 21.9H9.45001C9.05001 21.9 8.85001 21.6 8.85001 21.3V6.79998C8.75001 6.39998 9.05001 6.09998 9.45001 6.09998H14.55C14.95 6.09998 15.15 6.39998 15.15 6.69998V21.1C15.15 21.6 14.85 21.9 14.55 21.9Z" fill="#D2DCF7"/>
<path d="M22.95 21.9H18.65C18.05 21.9 17.65 21.4 17.65 20.9V1.09998C17.65 0.499976 18.15 0.0999756 18.65 0.0999756H22.95C23.55 0.0999756 23.95 0.599976 23.95 1.09998V20.9C23.95 21.5 23.45 21.9 22.95 21.9ZM18.55 0.999976C18.45 0.999976 18.35 1.09998 18.35 1.19998V21C18.35 21.1 18.45 21.2 18.55 21.2H22.85C22.95 21.2 23.05 21.1 23.05 21V1.09998C23.05 0.999976 22.95 0.899976 22.85 0.899976H18.55V0.999976Z" fill="#D2DCF7"/>
</svg>
