<svg width="18" height="19" viewBox="0 0 18 19" fill="none" xmlns="http://www.w3.org/2000/svg">
<path d="M13.0113 0H4.9864C4.31783 0 3.77063 0.577057 3.77063 1.28331V17.7161C3.77063 18.4224 4.31783 19 4.9864 19H13.0113C13.6799 19 14.2271 18.4235 14.2271 17.7167V1.28331C14.2271 0.577057 13.6799 0 13.0113 0ZM7.7152 0.925029H10.2825C10.3638 0.925029 10.4296 0.994514 10.4296 1.08083C10.4296 1.1666 10.3638 1.23609 10.2825 1.23609H7.7152C7.63394 1.23609 7.56812 1.1666 7.56812 1.08083C7.56812 0.994514 7.63394 0.925029 7.7152 0.925029ZM8.99886 18.3583C8.66303 18.3583 8.39097 18.0712 8.39097 17.7161C8.39097 17.3611 8.66303 17.0745 8.99886 17.0745C9.33469 17.0745 9.60674 17.3611 9.60674 17.7161C9.60674 18.0712 9.33469 18.3583 8.99886 18.3583ZM13.3811 16.625H4.61663V2.03517H13.3811V16.625Z" fill="#D2DCF7"/>
</svg>
