<svg width="21" height="21" viewBox="0 0 21 21" fill="none" xmlns="http://www.w3.org/2000/svg">
<g clip-path="url(#clip0)">
<path d="M20.1989 3.88422L7.33738 1.16237C6.79323 1.04725 6.25388 1.39831 6.13876 1.94246L5.89441 3.51274L20.7344 6.65312L20.9787 5.08284C21.0939 4.5389 20.743 3.99938 20.1989 3.88422Z" fill="#D2DCF7"/>
<path d="M14.7894 6.98601C14.6392 6.44502 14.0738 6.12525 13.533 6.27524L11.0914 6.95304L5.33551 5.73489L4.70249 8.72587L0.747327 9.82364C0.20654 9.97366 -0.113232 10.539 0.0367542 11.0798L2.26572 19.112C2.41595 19.6528 2.98134 19.9727 3.52212 19.8226L16.3078 16.2744C16.8486 16.1242 17.1683 15.559 17.0183 15.018L16.6357 13.6391L18.0697 13.9423C18.6138 14.0576 19.1532 13.7065 19.2683 13.1624L20.1755 8.87531L15.0104 7.7823L14.7894 6.98601ZM16.2659 11.0683L16.5822 9.57384C16.6296 9.35007 16.8515 9.20575 17.0752 9.253L18.5697 9.56941C18.7937 9.6169 18.938 9.83853 18.8907 10.0625L18.5745 11.5569C18.527 11.7807 18.3052 11.9252 18.0814 11.8778L16.587 11.5616C16.3628 11.5139 16.2185 11.292 16.2659 11.0683ZM0.969819 10.6252L4.5081 9.6436L12.8567 7.32682L13.755 7.07722C13.7714 7.07279 13.7878 7.0707 13.8038 7.0707C13.8758 7.0707 13.962 7.11799 13.9872 7.20854L14.0927 7.5884L14.4232 8.77923L1.27446 12.428L0.8385 10.8576C0.811186 10.759 0.871304 10.6525 0.969819 10.6252ZM16.2166 15.2402C16.2334 15.3012 16.2157 15.3516 16.1979 15.3831C16.1802 15.4146 16.1462 15.4558 16.0852 15.4726L3.29984 19.0208C3.28368 19.0252 3.26707 19.0275 3.25108 19.0275C3.17902 19.0275 3.09286 18.98 3.06767 18.8895L1.76758 14.2044L14.9163 10.5554L15.7182 13.4449L16.2166 15.2402Z" fill="#D2DCF7"/>
<path d="M5.36477 15.561C5.30341 15.3404 5.07313 15.2101 4.85253 15.2713L3.35936 15.6858C3.13896 15.7469 3.0085 15.9774 3.06985 16.198L3.48416 17.691C3.54551 17.9116 3.77579 18.0418 3.9964 17.9805L5.48957 17.5662C5.71017 17.505 5.84043 17.2745 5.77928 17.0539L5.36477 15.561Z" fill="#D2DCF7"/>
</g>
<defs>
<clipPath id="clip0">
<rect width="21" height="21" fill="white"/>
</clipPath>
</defs>
</svg>
