<svg width="28" height="25" viewBox="0 0 28 25" fill="none" xmlns="http://www.w3.org/2000/svg">
<g opacity="0.35" clip-path="url(#clip0)">
<path d="M25.95 11.5L24.65 11.2C24.35 11.1 24.15 11 23.95 10.7C22.85 8.79998 20.85 7.29998 18.35 6.59998C18.15 6.59998 17.95 6.59998 17.85 6.79998C17.65 6.99998 17.75 7.39998 18.05 7.49998C20.25 8.19998 22.15 9.49998 23.15 11.2C23.45 11.7 23.95 12 24.45 12.1L25.85 12.3C26.15 12.4 26.35 12.6 26.35 12.9V15.4C26.35 15.7 26.15 15.9 25.95 16L24.45 16.4C23.75 16.6 23.25 17 22.85 17.5C22.25 18.3 21.35 19.1 20.25 19.7C19.65 20 19.25 20.6 19.25 21.3L19.15 23.3C19.15 23.4 19.05 23.6 18.85 23.6H16.85C16.75 23.6 16.55 23.5 16.55 23.3L16.45 21.9C16.45 21.6 16.35 21.3 16.05 21.1C15.85 20.9 15.55 20.8 15.35 20.8H15.25C14.45 20.9 13.55 20.8 12.75 20.7C12.45 20.7 12.15 20.8 11.95 21C11.75 21.2 11.55 21.5 11.55 21.8L11.45 23.2C11.45 23.3 11.35 23.5 11.15 23.5H9.14998C9.04998 23.5 8.84998 23.4 8.84998 23.2V21.6C8.84998 20.6 8.34998 19.7 7.54998 19.1C5.94998 17.9 5.04998 16.1 5.04998 14.1C5.04998 11.1 7.24998 8.59998 10.45 7.49998C10.75 7.39998 10.85 6.99998 10.65 6.79998C10.65 6.69998 10.45 6.59998 10.25 6.69998C7.24998 7.69998 5.04998 9.89998 4.34998 12.5C3.54998 15.2 1.74998 15.6 1.14998 15.6C1.04998 15.6 0.849976 15.8 0.849976 16.1C0.849976 16.3 1.04998 16.5 1.24998 16.5C1.74998 16.4 3.04998 16.2 4.14998 14.8C4.34998 16.8 5.24998 18.6 6.94998 19.9C7.54998 20.3 7.84998 21 7.94998 21.7L8.04998 23.4C8.04998 24 8.54998 24.5 9.24998 24.5H11.25C11.85 24.5 12.35 24 12.45 23.4L12.55 22C12.55 21.9 12.55 21.9 12.65 21.9C12.65 21.9 12.75 21.8 12.75 21.9C13.65 22 14.55 22 15.45 22C15.55 22 15.55 22 15.55 22L15.65 22.1L15.75 23.5C15.75 24.1 16.25 24.6 16.95 24.6H18.95C19.55 24.6 20.05 24.1 20.15 23.5L20.25 21.5C20.25 21.1 20.45 20.8 20.75 20.6C21.95 19.9 22.85 19.1 23.55 18.2C23.85 17.8 24.25 17.6 24.75 17.4L26.25 17C26.95 16.8 27.35 16.2 27.35 15.6V13.1C27.15 12.3 26.65 11.6 25.95 11.5Z" fill="#D2DCF7"/>
<path d="M17.35 10.2C17.25 10.2 17.25 10.2 17.15 10.2C15.85 9.59996 12.35 9.79996 11.45 10.2C11.25 10.3 10.95 10.2 10.85 9.99996C10.75 9.79996 10.85 9.49996 11.05 9.39996C12.15 8.79996 15.95 8.69996 17.45 9.39996C17.65 9.49996 17.75 9.79996 17.65 9.99996C17.65 10.1 17.45 10.2 17.35 10.2Z" fill="#D2DCF7"/>
<path d="M21.15 12.1C21.15 12.7 20.65 13.1 20.15 13.1C19.55 13.1 19.15 12.6 19.15 12.1C19.15 11.5 19.65 11.1 20.15 11.1C20.75 11.1 21.15 11.6 21.15 12.1Z" fill="#D2DCF7"/>
<path d="M14.35 6.89996C14.55 6.89996 14.75 6.89996 14.95 6.89996C14.65 6.99996 14.45 6.99996 14.35 6.89996C14.15 6.99996 13.95 6.99996 13.75 6.89996C13.85 6.89996 14.05 6.89996 14.35 6.89996Z" fill="#D2DCF7"/>
<path d="M17.4499 3.79998C17.4499 4.69998 17.0499 5.59998 16.3499 6.19998C15.9499 6.59998 15.4499 6.79998 14.8499 6.89998C14.6499 6.89998 14.4499 6.89998 14.2499 6.89998C14.0499 6.89998 13.8499 6.89998 13.6499 6.89998C13.0499 6.79998 12.5499 6.49998 12.1499 6.19998C11.4499 5.59998 11.0499 4.79998 11.0499 3.79998C11.0499 1.99998 12.4499 0.599976 14.2499 0.599976C16.0499 0.599976 17.4499 1.99998 17.4499 3.79998Z" fill="#D2DCF7"/>
<path d="M14.85 6.89996C14.65 6.89996 14.45 6.99996 14.25 6.99996C14.05 6.99996 13.85 6.99996 13.65 6.89996C13.85 6.89996 14.05 6.89996 14.25 6.89996C14.55 6.89996 14.75 6.89996 14.85 6.89996Z" fill="#D2DCF7"/>
</g>
<defs>
<clipPath id="clip0">
<rect width="26.3" height="23.9" fill="white" transform="translate(0.849976 0.599976)"/>
</clipPath>
</defs>
</svg>
