<svg width="14" height="14" viewBox="0 0 14 14" fill="none" xmlns="http://www.w3.org/2000/svg">
<g opacity="0.4" clip-path="url(#clip0)">
<path d="M7.00083 0C5.00082 0 3.36591 1.63491 3.36591 3.63493C3.36591 5.63494 5.00082 7.26985 7.00083 7.26985C9.00084 7.26985 10.6358 5.63494 10.6358 3.63493C10.6358 1.63491 9.00084 0 7.00083 0Z" fill="#D2DCF7"/>
<path d="M13.239 10.1748C13.1438 9.93666 13.0168 9.71444 12.874 9.50809C12.1438 8.42871 11.0168 7.71443 9.747 7.53983C9.58829 7.52397 9.41368 7.55569 9.28669 7.65093C8.62002 8.143 7.82638 8.39696 7.00096 8.39696C6.17555 8.39696 5.38191 8.143 4.71524 7.65093C4.58824 7.55569 4.41364 7.50808 4.25492 7.53983C2.98508 7.71443 1.84223 8.42871 1.12795 9.50809C0.985094 9.71444 0.858098 9.95254 0.762881 10.1748C0.715272 10.27 0.731131 10.3811 0.77874 10.4764C0.905736 10.6986 1.06445 10.9208 1.20731 11.1113C1.42952 11.4129 1.66762 11.6827 1.93748 11.9367C2.15969 12.1589 2.41365 12.3652 2.66765 12.5716C3.9216 13.5081 5.42955 14.0001 6.9851 14.0001C8.54066 14.0001 10.0486 13.5081 11.3026 12.5716C11.5565 12.3811 11.8105 12.1589 12.0327 11.9367C12.2867 11.6827 12.5407 11.4129 12.7629 11.1113C12.9216 10.9049 13.0645 10.6986 13.1915 10.4764C13.2708 10.3811 13.2867 10.27 13.239 10.1748Z" fill="#D2DCF7"/>
</g>
<defs>
<clipPath id="clip0">
<rect width="14" height="14" fill="white"/>
</clipPath>
</defs>
</svg>
